<svg width="256" height="256" viewBox="0 0 256 256" fill="none" xmlns="http://www.w3.org/2000/svg">
<path fill-rule="evenodd" clip-rule="evenodd" d="M226.235 85.9662C218.718 77.013 208.474 72.5333 195.508 72.5333C190.562 72.5343 185.546 73.6613 180.474 75.9144C175.465 78.1683 170.888 81.3377 166.755 85.4179L166.003 85.2351V75.092L164.594 73.904C164.594 73.904 136.805 76.2844 118.958 76.2647C101.483 76.2454 74.2771 73.904 74.2771 73.904L72.8676 75.2747V88.5248H72.4918C68.1711 83.6532 63.5942 79.8435 58.7728 77.1023C53.889 74.3014 48.8096 72.9002 43.5504 72.8988C37.7266 72.8988 33.0571 74.6681 29.5495 78.1989C25.9788 81.6713 24.1778 86.1794 24.1778 91.7231C24.1778 96.353 25.6656 100.435 28.6098 103.968C31.5537 107.438 35.4397 109.177 40.2616 109.177C44.8312 109.175 48.7203 108.048 51.9133 105.796C55.0421 103.542 56.6116 100.219 56.6116 95.8352C56.6116 93.7042 56.4546 92.0581 56.1418 90.9007C55.8287 89.683 55.5465 88.5548 55.2961 87.5196C58.1754 87.6429 61.2188 88.6179 64.4107 90.4438C67.6032 92.271 70.426 94.71 72.8676 97.7542V147.922C72.8676 150.052 72.5221 151.821 71.834 153.222C71.1458 154.621 69.9827 155.72 68.3573 156.512C66.9803 157.181 64.7513 157.761 61.6857 158.248C58.5595 158.673 56.2991 158.917 54.9202 158.979V165.65H103.406V118.863C103.406 118.863 103.688 108.507 103.688 95.8352C103.688 83.1639 118.958 82.9659 118.958 82.9659C118.958 82.9659 134.259 82.9659 135.089 96.6272C135.547 104.177 135.499 105.839 135.43 108.21C135.374 110.129 135.305 112.514 135.48 118.863C135.872 133.056 135.48 206.222 135.48 206.222H186.488V199.46C184.422 199.338 181.818 199.003 178.689 198.455C175.622 197.907 173.237 197.297 171.547 196.627C169.796 195.896 168.414 194.737 167.413 193.155C166.474 191.572 166.003 189.712 166.003 187.581V161.903H166.755C169.197 163.608 172.302 165.041 176.058 166.198C179.815 167.416 184.705 168.025 190.716 168.025C204.246 168.025 215.43 163.424 224.262 154.227C233.095 145.028 237.511 134.002 237.511 121.147C237.511 106.588 233.752 94.8605 226.235 85.9662ZM182.165 86.4231C178.097 86.4238 174.835 87.1244 172.393 88.5248C169.952 89.8647 167.819 91.6332 166.003 93.8249V145.637C166.379 146.855 167.1 148.441 168.164 150.389C169.228 152.276 170.295 153.801 171.359 154.958C172.924 156.601 174.713 157.821 176.715 158.613C178.718 159.404 180.915 159.8 183.293 159.801C189.494 159.801 194.444 156.571 198.139 150.115C201.898 143.596 203.777 134.063 203.777 121.513C203.777 116.944 203.433 112.588 202.744 108.446C202.055 104.243 200.833 100.495 199.079 97.2059C197.388 93.9174 195.132 91.2962 192.314 89.3472C189.558 87.3998 186.172 86.4231 182.165 86.4231Z" fill="#292524"/>
</svg>
