<svg width="512" height="512" viewBox="0 0 512 512" fill="none" xmlns="http://www.w3.org/2000/svg">
<path fill-rule="evenodd" clip-rule="evenodd" d="M452.47 171.932C437.436 154.026 416.948 145.067 391.017 145.067C381.123 145.069 371.092 147.323 360.948 151.829C350.929 156.337 341.776 162.675 333.51 170.836L332.007 170.47V150.184L329.188 147.808C329.188 147.808 273.61 152.569 237.916 152.529C202.966 152.491 148.554 147.808 148.554 147.808L145.735 150.549V177.05H144.984C136.342 167.306 127.188 159.687 117.546 154.205C107.778 148.603 97.6193 145.8 87.1007 145.798C75.4532 145.798 66.1142 149.336 59.099 156.398C51.9576 163.343 48.3556 172.359 48.3556 183.446C48.3556 192.706 51.3311 200.869 57.2197 207.936C63.1074 214.876 70.8795 218.353 80.5231 218.353C89.6623 218.351 97.4406 216.097 103.827 211.591C110.084 207.083 113.223 200.438 113.223 191.67C113.223 187.408 112.909 184.116 112.284 181.801C111.657 179.366 111.093 177.11 110.592 175.039C116.351 175.286 122.438 177.236 128.821 180.888C135.206 184.542 140.852 189.42 145.735 195.508V295.844C145.735 300.105 145.044 303.642 143.668 306.444C142.292 309.242 139.965 311.44 136.715 313.023C133.961 314.362 129.503 315.521 123.371 316.495C117.119 317.347 112.598 317.835 109.84 317.958V331.299H206.813V237.726C206.813 237.726 207.377 217.013 207.377 191.67C207.377 166.328 237.916 165.932 237.916 165.932C237.916 165.932 268.517 165.932 270.177 193.254C271.095 208.354 270.998 211.677 270.86 216.42C270.748 220.259 270.61 225.028 270.96 237.726C271.743 266.111 270.96 412.444 270.96 412.444H372.976V398.92C368.843 398.676 363.635 398.005 357.377 396.91C351.244 395.814 346.475 394.594 343.094 393.255C339.592 391.792 336.828 389.474 334.825 386.31C332.948 383.143 332.007 379.423 332.007 375.161V323.806H333.51C338.394 327.216 344.603 330.081 352.115 332.396C359.63 334.832 369.411 336.05 381.432 336.051C408.491 336.051 430.859 326.848 448.524 308.454C466.189 290.056 475.022 268.003 475.022 242.295C475.022 213.175 467.505 189.721 452.47 171.932ZM364.331 172.846C356.193 172.848 349.669 174.249 344.786 177.05C339.904 179.729 335.637 183.266 332.007 187.65V291.275C332.758 293.71 334.201 296.882 336.329 300.778C338.457 304.552 340.591 307.602 342.719 309.916C345.848 313.203 349.426 315.642 353.431 317.227C357.436 318.809 361.83 319.601 366.586 319.602C378.988 319.602 388.887 313.141 396.279 300.23C403.796 287.193 407.555 268.125 407.555 243.026C407.555 233.888 406.866 225.176 405.488 216.891C404.109 208.485 401.666 200.991 398.158 194.412C394.776 187.835 390.264 182.592 384.627 178.694C379.116 174.8 372.345 172.846 364.331 172.846Z" fill="currentColor"/>
</svg>
